<?xml version="1.0" encoding="UTF-8" standalone="no"?>
<!-- Created with Inkscape (http://www.inkscape.org/) -->

<svg
   width="320.84128"
   height="453.80316"
   id="svg2485"
   sodipodi:version="0.32"
   inkscape:version="1.3.2 (091e20e, 2023-11-25, custom)"
   version="1.0"
   sodipodi:docname="Snifter_bowl.svg"
   xmlns:inkscape="http://www.inkscape.org/namespaces/inkscape"
   xmlns:sodipodi="http://sodipodi.sourceforge.net/DTD/sodipodi-0.dtd"
   xmlns="http://www.w3.org/2000/svg"
   xmlns:svg="http://www.w3.org/2000/svg"
   xmlns:rdf="http://www.w3.org/1999/02/22-rdf-syntax-ns#"
   xmlns:cc="http://creativecommons.org/ns#"
   xmlns:dc="http://purl.org/dc/elements/1.1/">
  <defs
     id="defs2487">
    <inkscape:path-effect
       effect="fill_between_many"
       method="originald"
       linkedpaths="#path11,0,1|"
       id="path-effect25" />
  </defs>
  <sodipodi:namedview
     id="base"
     pagecolor="#ffffff"
     bordercolor="#666666"
     borderopacity="1.0"
     gridtolerance="10000"
     guidetolerance="10"
     objecttolerance="10"
     inkscape:pageopacity="0.0"
     inkscape:pageshadow="2"
     inkscape:zoom="4"
     inkscape:cx="288.75"
     inkscape:cy="151.625"
     inkscape:document-units="px"
     inkscape:current-layer="layer1"
     width="328px"
     height="456px"
     inkscape:window-width="3440"
     inkscape:window-height="1377"
     inkscape:window-x="-8"
     inkscape:window-y="-8"
     showgrid="false"
     fit-margin-top="0"
     fit-margin-left="0"
     fit-margin-right="0"
     fit-margin-bottom="0"
     inkscape:window-maximized="1"
     inkscape:showpageshadow="2"
     inkscape:pagecheckerboard="0"
     inkscape:deskcolor="#d1d1d1" />
  <metadata
     id="metadata2490">
    <rdf:RDF>
      <cc:Work
         rdf:about="">
        <dc:format>image/svg+xml</dc:format>
        <dc:type
           rdf:resource="http://purl.org/dc/dcmitype/StillImage" />
      </cc:Work>
    </rdf:RDF>
  </metadata>
  <g
     inkscape:groupmode="layer"
     id="layer2"
     inkscape:label="Layer 2" />
  <g
     inkscape:label="Layer 1"
     inkscape:groupmode="layer"
     id="layer1"
     transform="translate(-3.1548176,-1.8562674)"
     style="display:inline">
    <path
       inkscape:connector-curvature="0"
       id="path2467"
       d="m 135.74491,308.93716 c -2.35323,-3.95399 -3.75166,-5.01183 -10.48025,-7.92769 -4.27056,-1.85067 -8.62987,-3.9442 -9.68736,-4.65228 -3.49222,-2.33835 0.64401,-2.6199 5.83016,-0.39686 2.61709,1.12182 5.65714,2.03967 6.75565,2.03967 1.09851,0 3.87371,1.6118 6.16709,3.58177 l 4.1698,3.58176 27.69381,0.012 c 15.23159,0.007 28.16909,-0.28176 28.75,-0.64078 1.75878,-1.08699 1.20081,-2.3924 -1.69381,-3.96276 l -2.75,-1.49189 3,-0.17923 c 1.65,-0.0986 4.8,-0.27172 7,-0.38476 2.2,-0.11305 5.97109,-0.96838 8.3802,-1.90075 7.77385,-3.00861 6.86002,-1.03249 -1.3802,2.98464 -6.9898,3.40754 -8.47181,4.61826 -11.73637,9.58789 -55.84197,118.1523 28.47586,15.70317 -11.02382,9.28512 -0.6819,0.22132 -4.83981,0.61686 -9.23981,0.87898 z m 37.98426,2.45867 c -0.3323,-0.33229 -1.19479,-0.36781 -1.91667,-0.0789 -0.79773,0.31922 -0.56078,0.55618 0.60417,0.60416 1.05416,0.0434 1.64479,-0.19293 1.3125,-0.52522 z m -28.18236,-12.30048 c -1.65396,-0.64702 -1.44331,-0.86605 1.375,-1.42971 6.38102,-1.27621 12.7032,-0.48595 11.51343,1.43914 -0.66452,1.07522 -10.1335,1.06829 -12.88843,-0.009 z m 28.50534,-0.0188 c -1.15414,-0.74866 -0.94045,-1.06652 1.05345,-1.56696 3.61973,-0.90849 13.3944,-0.18576 13.3944,0.99037 0,1.30069 -12.55889,1.80189 -14.44785,0.57659 z M 151,293.60699 C 151,292.72314 151.69083,292 152.53518,292 c 0.84435,0 2.64108,-0.72461 3.99272,-1.61024 1.61944,-1.0611 3.38005,-1.37869 5.16266,-0.93129 3.2292,0.81048 1.96658,1.94507 -4.00311,3.59718 -2.0969,0.58032 -4.4594,1.30334 -5.25,1.60672 C 151.55501,295.001 151,294.5935 151,293.60699 Z m 43,-0.37641 c 0,-0.5671 2.25,-1.57087 5,-2.23058 9.16401,-2.19841 6.05945,-4.15638 -11.15832,-7.03723 -16.74764,-2.8022 -40.95312,-2.48438 -40.91611,0.53723 0.007,0.55 1.15124,1.14239 2.54334,1.31642 1.3921,0.17403 2.53109,0.72796 2.53109,1.23095 0,1.60962 -5.19583,2.28359 -8.47196,1.09893 -3.49656,-1.26437 -6.85268,-1.43401 -10.26679,-0.51896 C 130.46028,288.37807 131.30708,290 134.5,290 c 1.31008,0 2.69209,0.50179 3.07112,1.11508 0.49666,0.80361 -2.34995,0.99571 -10.19098,0.68774 -8.749,-0.34363 -11.5657,-0.83758 -14.38014,-2.52177 -4.0151,-2.40268 -21.712525,-4.64348 -22.318387,-2.82589 -1.290416,3.87125 -32.834951,-10.01415 -44.459988,-19.57057 -3.453106,-2.83865 -6.038831,-5.40072 -5.746057,-5.69349 0.292775,-0.29278 1.543044,0.39182 2.778375,1.52132 1.235331,1.1295 3.821057,2.84455 5.746057,3.81123 1.925,0.96668 5.3,2.97756 7.5,4.46861 2.2,1.49105 6.925,3.98294 10.5,5.53753 3.575,1.55458 7.207888,3.41905 8.073085,4.14325 0.865196,0.7242 3.609658,1.59587 6.098804,1.93704 3.707541,0.50818 4.644033,0.312 5.18016,-1.08512 1.02679,-2.67577 0.167875,-3.20952 -8.098545,-5.03259 -8.501411,-1.87489 -28.443088,-9.81095 -30.312266,-12.06317 -0.646573,-0.77908 -3.584654,-2.79483 -6.529068,-4.47945 C 33.184163,255.24216 24.236705,244.72421 18.266768,232.74178 7.8170495,211.76785 4.364486,195.01902 5.2918549,169.79881 6.2412893,143.97851 10.02458,130.39001 34.171057,66.072994 52.199156,18.053004 53.0847,15.888802 56.580894,11.305055 57.967383,9.4872746 58.597584,8 57.98134,8 57.365097,8 57.004696,6.9875 57.180449,5.75 57.499102,3.5063223 57.557603,3.4995466 78,3.3386383 89.634479,3.2470597 97.418839,3.5283 96,3.9889582 94.625,4.4353832 87.0875,4.845496 79.25,4.90032 71.4125,4.955144 65,5.3858946 65,5.8575436 65,7.120993 75.498111,8 90.587674,8 103.96872,8 107.7602,8.9952966 102.31017,11.07726 100.76458,11.667693 90.739396,12.454351 80.031991,12.825387 L 60.563982,13.5 55.225288,27 C 52.289006,34.425 48.383057,44.55 46.545401,49.5 44.707746,54.45 41.551628,62.325 39.531805,67 30.903048,86.971776 15.702946,131.25876 13.056545,144.13826 7.2666847,172.31634 8.519541,194.02473 17.059618,213.5 22.244858,225.32471 27.069606,232.35055 35,239.62493 c 12.222459,11.2114 11.89985,11.01886 42.806347,25.54734 2.368492,1.11338 8.536644,2.77074 13.707006,3.68303 5.170362,0.91229 9.960007,2.21806 10.643657,2.90171 0.78681,0.78681 4.22687,1.24299 9.37351,1.24299 6.96071,0 8.83833,0.38955 13.05,2.70748 4.91477,2.70489 4.93814,2.7073 24.41948,2.51905 38.3034,-0.37012 65.54736,-1.19011 68.5,-2.06171 2.81477,-0.8309 2.65001,-0.93156 -2.66852,-1.63024 -3.11769,-0.40957 -7.84269,-0.46396 -10.5,-0.12088 -5.25184,0.67806 -9.75118,-0.84953 -5.27933,-1.7924 1.34632,-0.28387 5.14785,-0.79272 8.44785,-1.13079 3.3,-0.33807 8.475,-1.23202 11.5,-1.98656 3.025,-0.75454 8.425,-1.90886 12,-2.56514 15.92208,-2.92293 39.00207,-13.18451 51,-22.6751 12.84635,-10.1617 20.86016,-19.25762 26.22283,-29.76371 8.10151,-15.8718 10.85212,-31.91286 8.89293,-51.86192 C 315.5569,146.76521 312.04205,130.79158 307.5136,119 305.50699,113.775 302.15051,105 300.05475,99.5 297.95898,94 295.02832,86.8 293.54216,83.5 292.056,80.2 286.86285,67.6 282.00182,55.5 273.51985,34.386812 266.75396,18.708591 264.3218,14.531103 263.20715,12.616582 261.70245,12.555293 209.83775,12.311864 149.44304,12.0284 120.47236,11.40997 118.78678,10.368222 118.01643,9.8921216 118.27563,9.4032443 119.56638,8.8977827 122.58591,7.7153256 262.76755,7.8148783 263.5,9 c 0.92254,1.492695 2.5,1.206861 2.5,-0.452996 0,-2.3526575 -6.58006,-3.5271322 -20.5,-3.6590459 -10.95798,-0.1038443 -12.21461,-0.2638942 -8,-1.0189143 5.97225,-1.0698902 28.47378,-0.047055 30.25,1.3750524 0.6875,0.5504363 1.25,2.3136202 1.25,3.9181866 0,1.6045662 0.89152,4.6649152 1.98115,6.8007752 7.97778,15.63774 37.91385,90.321172 43.01288,107.306992 10.49822,34.97151 10.83001,65.52868 1.02974,94.83625 -1.72766,5.16653 -4.30993,11.4187 -5.73838,13.8937 -2.88955,5.00658 -14.40251,20.47953 -19.49327,26.19816 -5.1436,5.77801 -34.93388,24.99341 -36.42946,23.49783 -0.29367,-0.29367 0.51709,-1.09423 1.80169,-1.77901 6.04533,-3.22258 18.47058,-12.02492 19.61671,-13.89693 l 1.28107,-2.09239 -3.78107,1.89695 c -10.8916,5.4643 -17.22726,8.03848 -21.28106,8.64652 -6.89162,1.0337 -8,1.51514 -8,3.47494 0,1.11311 -1.25275,2.30688 -3.25,3.09699 -1.7875,0.70714 -4.39569,2.48898 -5.79598,3.95966 -1.96226,2.0609 -3.89595,2.83262 -8.43413,3.366 -3.2385,0.38062 -6.44657,1.15547 -7.12907,1.72189 -0.68249,0.56642 -4.76213,1.4235 -9.06586,1.90462 -4.30373,0.48112 -9.51246,1.1879 -11.57496,1.57061 -2.35865,0.43767 -3.75,0.31328 -3.75,-0.33526 z m 16.72917,-6.83475 c -0.3323,-0.33229 -1.19479,-0.36781 -1.91667,-0.0789 -0.79773,0.31922 -0.56078,0.55618 0.60417,0.60416 1.05416,0.0434 1.64479,-0.19293 1.3125,-0.52522 z m -32.33509,1.77555 c 0.38777,-0.62743 1.69524,-1.08677 2.90548,-1.02076 1.21024,0.066 3.10044,-0.23211 4.20044,-0.66249 1.51111,-0.59121 1.73446,-0.49319 0.91369,0.401 -1.49215,1.62564 -8.97086,2.8214 -8.01961,1.28225 z m -21.65263,-0.76327 C 155.35454,286.0212 157.22082,285 161.14235,285 c 2.77179,0 3.89651,0.38905 3.61368,1.25 -0.44428,1.35243 -6.889,2.2837 -8.01458,1.15811 z M 105,268.41182 c -10.6218,-2.26713 -11,-2.3957 -11,-3.73961 0,-0.86475 3.01999,-1.71711 9.16574,-2.58695 9.07157,-1.28394 9.18329,-1.274 10.87412,0.96758 0.93961,1.24567 3.19373,2.75588 5.00915,3.35601 1.81543,0.60013 3.48457,1.65365 3.70921,2.34115 0.55134,1.6873 -9.13257,1.50288 -17.75822,-0.33818 z M 195,267 c 0,-0.55 0.675,-1 1.5,-1 0.825,0 1.5,0.45 1.5,1 0,0.55 -0.675,1 -1.5,1 -0.825,0 -1.5,-0.45 -1.5,-1 z m 4.58536,0.13812 c -0.32062,-0.51878 0.86731,-1.86148 2.63985,-2.98378 2.08609,-1.32081 3.23198,-2.85421 3.2488,-4.34744 0.0223,-1.97885 0.60711,-2.34949 4.11246,-2.60641 5.73446,-0.42029 7.62238,1.88384 4.37543,5.34006 -1.2824,1.36506 -4.16095,2.95365 -6.39677,3.53021 -2.23582,0.57655 -4.81476,1.2648 -5.73097,1.52944 -0.91622,0.26463 -1.92818,0.0567 -2.2488,-0.46208 z m -50.577,-1.04007 c -2.71058,-1.84401 0.23559,-2.97237 9.60296,-3.67786 9.92005,-0.74712 20.48283,0.88566 18.50761,2.86088 -1.40886,1.40886 -26.1822,2.12885 -28.11057,0.81698 z m -21.00311,-0.99158 c -3.28713,-0.91464 -3.78246,-3.66564 -0.80367,-4.46352 3.33289,-0.89273 8.59603,-0.77944 9.20014,0.19802 0.43588,0.70528 -4.72891,5.36211 -5.61123,5.05935 -0.15977,-0.0548 -1.41313,-0.41205 -2.78524,-0.79385 z m 23.54504,-8.0251 c -0.75995,-1.22963 3.62654,-2.03632 10.94971,-2.01368 7.36294,0.0228 10.39013,0.75456 8.38213,2.02632 -1.84353,1.16759 -18.60919,1.15663 -19.33184,-0.0126 z M 155.5,4 C 154.70312,2.710616 156.5435,2.6313909 180,2.945321 190.725,3.088859 199.9275,3.6098819 200.45,4.1031496 201.01215,4.6338485 192.15651,5 178.75902,5 164.74372,5 155.88258,4.6190234 155.5,4 Z m -4.75,-0.6622807 c 0.6875,-0.2774123 1.8125,-0.2774123 2.5,0 0.6875,0.2774123 0.125,0.504386 -1.25,0.504386 -1.375,0 -1.9375,-0.2269737 -1.25,-0.504386 z"
       style="display:none;fill:#bbbbbb"
       sodipodi:nodetypes="csssssccsscssssssccssssscssccsssssssssssssscsssssssssssssssssssssssssssssssssscsssssssssssssssssssssssssssssssssssssssssssscsssssssssssssssssssssssssssssssssssssssssssssssssssssssssssssssssss" />
    <path
       inkscape:connector-curvature="0"
       id="path2461"
       d="m 135.56034,305.1075 c 0.21523,-0.21588 0.9647,0.0734 1.66549,0.64295 z M 130,302.27534 c -5.42574,-2.05009 -12.22941,-5.37926 -11.8233,-5.78538 0.52296,-0.52295 8.90608,1.98306 12.5733,3.75862 3.55214,1.71984 2.92476,3.41525 -0.75,2.02676 z m -14.28746,-12.69477 c -0.9831,-0.74571 -1.6581,-1.87809 -1.5,-2.51641 0.19832,-0.8007 -2.50335,-1.2498 -8.71254,-1.4483 -9.015761,-0.28824 -16.5,-1.96353 -16.5,-3.69341 0,-0.50735 1.9125,-0.93613 4.25,-0.95286 7.32364,-0.0524 3.049647,-1.5188 -17.75,-6.08999 -2.75,-0.60438 -6.8,-1.91306 -9,-2.90818 -2.2,-0.99513 -7.093526,-3.19837 -10.874503,-4.89609 -3.780976,-1.69773 -8.409134,-4.4342 -10.284796,-6.08105 C 43.46504,259.34742 41.563057,258 41.114074,258 c -0.448983,0 -3.94915,-3.0375 -7.778147,-6.75 C 26.443483,244.56726 20,236.06345 20,233.64987 20,232.96244 19.591736,231.9725 19.092746,231.45 18.042563,230.35034 13.755412,220.36947 10.33698,211.06581 6.91062,201.74057 4.6512202,182.9091 5.3499127,169.5 6.6738776,144.09086 11.137216,128.79724 38.449139,56.085587 53.536044,15.920207 54.985587,12.610703 58.253266,10.870093 59.48897,10.211865 60.95,9.1268325 61.5,8.4589101 62.261496,7.534146 67.219312,7.4229613 82.287148,7.9927345 93.17008,8.4042603 102.33568,9.0023459 102.65515,9.3218137 104.09049,10.757159 96.116946,11.5 79.274832,11.5 H 61.049663 l -2.473504,5.510674 C 55.708731,23.398962 46,47.762216 46,48.569501 c 0,0.300177 -3.173676,8.459379 -7.052613,18.13156 -6.422468,16.01451 -12.589833,32.773683 -20.82587,56.592139 -1.672301,4.83626 -4.263903,14.06126 -5.759116,20.5 -2.4000842,10.33533 -2.7269933,13.81552 -2.7904846,29.7068 -0.056877,14.23588 0.3182386,19.67294 1.7938046,26 1.953623,8.37692 8.396302,23.00833 13.320567,30.25118 4.140961,6.09073 18.458178,18.55003 27.897854,24.2776 12.634164,7.66585 30.476158,14.93626 36.713607,14.9604 1.663512,0.006 3.705605,0.99041 5.037101,2.42712 2.112675,2.27961 2.982281,2.43518 15.37256,2.75 11.39698,0.28958 13.5073,0.60804 15.9629,2.40886 3.54677,2.60102 16.69155,4.59442 22.06651,3.34636 4.91599,-1.14149 23.26318,-1.1774 23.26318,-0.0455 0,0.48178 -5.7375,1.26928 -12.75,1.75 -11.66711,0.79979 -12.77447,1.04475 -13.03813,2.88423 -0.24856,1.73416 -1.07252,2.02117 -6,2.09001 -3.52736,0.0493 -7.57712,0.90588 -10.58899,2.23978 -5.53893,2.45311 -10.29308,2.72582 -12.91034,0.74057 z m 5.78038,-4.56912 c 0.35034,-0.56686 -0.0511,-0.7345 -0.94098,-0.39301 -1.73242,0.66479 -2.04939,1.38156 -0.61096,1.38156 0.51754,0 1.21592,-0.44485 1.55194,-0.98855 z M 212,289.02296 c 0,-0.66561 0.9,-1.44555 2,-1.73321 C 217.73816,286.3122 216.01893,285 211,285 c -3.77778,0 -5,0.36667 -5,1.5 0,1.88933 -0.98798,1.89714 -3.65524,0.0289 -1.15513,-0.80909 -6.99276,-2.18668 -12.9725,-3.06132 -14.58448,-2.13322 -15.57172,-2.36922 -15.15394,-3.62257 0.22505,-0.67516 5.03992,-1.19611 12.82104,-1.38717 6.85335,-0.16828 19.30846,-0.62582 27.67803,-1.01675 15.70853,-0.73372 21.28261,0.0931 21.28261,3.15686 0,2.36671 -8.52201,5.93095 -21.75,9.0967 -1.3905,0.33278 -2.25,0.0762 -2.25,-0.67172 z m 8.07765,-14.92315 c -6.34589,-0.8607 -6.07511,-2.55912 0.64448,-4.04248 C 248.00364,264.0349 262.91234,258.5408 276,249.68655 301.64366,232.33773 316.11528,209.55207 318.0364,183.5 c 1.24862,-16.93241 -2.25598,-43.50795 -7.84645,-59.5 -4.96791,-14.21119 -21.95249,-56.1316 -37.40594,-92.323334 -5.94476,-13.922545 -7.74498,-19.115694 -6.91442,-19.946253 0.83056,-0.83056 1.50402,-0.616199 2.5867,0.823334 4.78463,6.361647 40.20834,94.097233 45.92591,113.746873 3.97937,13.67597 7.60565,35.2737 7.61319,45.34343 0.0139,18.59173 -5.08423,43.68808 -11.47631,56.49351 -6.36834,12.75786 -21.73207,31.9468 -28.65158,35.78516 l -4.3675,2.42272 4.96123,-5.42272 c 2.72867,-2.9825 5.54117,-5.78258 6.25,-6.22241 0.70882,-0.43983 1.28877,-1.25205 1.28877,-1.80494 0,-0.55289 -2.5875,1.11423 -5.75,3.7047 -6.80655,5.57539 -21.65545,12.73837 -31.04995,14.97823 -3.68503,0.87859 -8.082,2.00789 -9.77105,2.50957 -3.30465,0.98153 -16.15415,0.9881 -23.35135,0.0119 z M 209.75,272.33772 c 0.6875,-0.27741 1.8125,-0.27741 2.5,0 0.6875,0.27741 0.125,0.50439 -1.25,0.50439 -1.375,0 -1.9375,-0.22698 -1.25,-0.50439 z M 114.5,269.24959 C 110.07605,268.82737 97.648919,265.75696 96.55,264.81463 96.0275,264.36658 97.918826,264 100.75295,264 c 2.83412,0 6.30667,-0.52567 7.71679,-1.16817 2.12471,-0.96808 2.77507,-0.88802 3.79705,0.46742 0.67827,0.89957 2.92071,2.33128 4.98321,3.18158 2.0625,0.85031 3.75,1.71249 3.75,1.91596 0,0.68512 -3.47705,1.14131 -6.5,0.8528 z m 37.67708,-4.11898 C 150.63738,264.15439 157.62864,263 165.08055,263 c 7.03201,0 6.85765,1.61703 -0.25451,2.36039 -8.05257,0.84166 -11.04479,0.78731 -12.64896,-0.22978 z M 204.75,264.32558 c 1.2375,-0.86324 2.25,-2.58715 2.25,-3.83092 0,-2.61813 3.31419,-3.93206 6.12443,-2.42806 2.72567,1.45873 1.26936,3.51771 -4.13136,5.84103 -5.70779,2.45543 -7.40335,2.62244 -4.24307,0.41795 z m -78.5301,-1.50423 c 0.23877,-0.72674 1.91017,-1.46596 3.71423,-1.6427 2.3685,-0.23204 3.15945,0.0459 2.84597,1 -0.23877,0.72674 -1.91017,1.46596 -3.71423,1.6427 -2.3685,0.23204 -3.15945,-0.0459 -2.84597,-1 z M 142.33249,11 c -10.54213,-0.275 -19.43674,-0.769611 -19.7658,-1.0991356 -0.32906,-0.3295246 3.52795,-0.8920246 8.57113,-1.25 11.61784,-0.8246577 126.57872,-0.8334225 129.65307,-0.00988 1.25999,0.3375185 2.12211,1.1188739 1.91582,1.7363456 C 262.30877,11.568434 180.37161,11.992281 142.33249,11 Z M 58,5.5833333 c 0,-1.6777411 1.805462,-2.4379722 4.271075,-1.7984344 1.380107,0.3579759 1.518641,0.7635513 0.627556,1.8372438 C 61.402277,7.4251386 58,7.3981841 58,5.5833333 Z"
       style="display:none;fill:#979797"
       sodipodi:nodetypes="cccssssssssssssssssssssssssscssssssssscsssssssssssssssssssssssssssssssssssssssscssssssssssssssssssssssssssssssssssssssssssss" />
    <path
       inkscape:connector-curvature="0"
       id="path2459"
       d="m 117.25,289.96884 c -1.2375,-0.49742 -2.25,-1.36889 -2.25,-1.93662 0,-0.56772 1.0125,-1.05252 2.25,-1.07732 1.2375,-0.0248 3.6,-0.68362 5.25,-1.46403 2.78601,-1.31772 2.46502,-1.37195 -4.5,-0.76034 -9.75083,0.85625 -15.27118,0.70674 -21.876384,-0.59246 -6.691844,-1.31625 -7.655796,-2.13338 -2.540283,-2.15338 5.367184,-0.021 7.842017,-1.62024 3.864512,-2.49727 C 95.82653,279.12993 93.375,278.44163 92,277.95787 c -1.375,-0.48376 -5.425,-1.37559 -9,-1.98184 -7.374347,-1.25055 -15.712148,-3.54123 -17.378612,-4.77451 -0.616763,-0.45644 -4.195582,-2.10473 -7.952931,-3.66288 -3.757349,-1.55814 -8.707349,-4.32423 -11,-6.14685 -2.292651,-1.82262 -6.073737,-4.79389 -8.402412,-6.60282 C 26.44323,245.60492 13.337619,222.87418 8.0602178,202.39914 6.0944351,194.77237 5.1027348,175.87643 6.0784896,164.63912 8.2352414,139.80081 13.529617,122.52811 42.425468,46.058469 50.173967,25.552931 54.746281,14.799174 56.433955,13.1115 61.973917,7.5715374 61.527144,8.9197524 39.736167,63.5 30.343038,87.027137 16.10881,127.17162 13.674907,137 c -3.303348,13.3393 -4.7463339,24.80578 -4.7820662,38 -0.050607,18.6869 2.3289162,29.91171 9.3101112,43.91813 4.494471,9.01729 6.543562,11.84686 13.858772,19.13747 9.149116,9.11835 18.982644,16.20586 29.78585,21.46815 7.600661,3.70231 21.748658,8.89823 27.652426,10.15548 2.896735,0.61688 3.961692,1.33023 3.861111,2.5863 -0.125368,1.56562 1.15003,1.73447 13.101059,1.73447 12.09399,0 13.63482,0.20995 17.80208,2.42571 2.50918,1.33414 6.7387,2.71671 9.39894,3.07237 6.9891,0.93441 10.33681,2.43171 10.33681,4.62324 0,1.54024 -0.76564,1.88248 -4.25,1.89977 -2.3375,0.0116 -7.4,1.13464 -11.25,2.49564 -7.69379,2.71981 -7.99833,2.75912 -11.25,1.45211 z m 99.31477,-3.27703 c 0.45291,-1.18028 -0.25436,-1.73055 -2.85019,-2.21753 -4.52668,-0.84921 -8.27786,-0.23719 -7.96458,1.29946 0.29455,1.4448 -1.93422,1.63785 -3.3,0.28583 -0.5225,-0.51723 -6.8,-1.9056 -13.95,-3.08526 -7.15,-1.17966 -13.45,-2.61597 -14,-3.19181 -0.69232,-0.72484 0.04,-0.85213 2.38021,-0.41369 1.85912,0.3483 13.32596,-0.0641 25.48186,-0.91649 12.15591,-0.85238 23.90981,-1.25059 26.11979,-0.88492 5.01509,0.82982 7.76316,2.22714 6.95421,3.53604 -0.9432,1.52613 -11.24339,5.84211 -15.60793,6.54003 -3.24731,0.51927 -3.7694,0.36702 -3.26337,-0.95166 z M 148,280.98565 c 0,-1.175 5.64408,-1.98565 13.825,-1.98565 4.43619,0 7.18135,0.36623 6.625,0.88384 -1.16815,1.08679 -20.45,2.12567 -20.45,1.10181 z m 72.5,-7.89275 c -2.75,-0.3261 -4.55,-0.87748 -4,-1.2253 1.15817,-0.73243 7.29985,-2.26804 9.5,-2.37529 1.54668,-0.0754 5.41395,-1.10934 17.5,-4.67873 41.53688,-12.26717 70.93422,-43.19645 74.66359,-78.55442 C 321.06891,158.7139 313.98146,128.12632 293.77396,81 291.06184,74.675 285.91587,62.3 282.33848,53.5 278.76108,44.7 273.62145,32.510565 270.91706,26.412367 266.1221,15.600067 265.10886,12 266.86067,12 c 2.06182,0 9.28708,16.009907 26.85229,59.5 13.25821,32.82629 15.67379,39.31559 19.91488,53.5 11.09664,37.11288 9.72099,76.14271 -3.64797,103.5 -5.01253,10.25731 -21.07769,30.81255 -26.30556,33.65777 -2.95958,1.61072 -0.558,-1.93865 4.75908,-7.0336 7.25314,-6.95014 5.31603,-7.96499 -2.18339,-1.14389 -15.81719,14.38655 -41.83225,21.94877 -65.75,19.11262 z m 14.22917,-0.69707 c -0.3323,-0.33229 -1.19479,-0.36781 -1.91667,-0.0789 -0.79773,0.31922 -0.56078,0.55618 0.60417,0.60416 1.05416,0.0434 1.64479,-0.19293 1.3125,-0.52522 z M 106.5,267.47116 c -2.2,-0.79257 -4.13906,-1.44782 -4.30902,-1.4561 -0.16996,-0.008 -0.0309,-0.46506 0.30902,-1.01506 0.33992,-0.55 2.01502,-1 3.72246,-1 3.58863,0 13.75958,3.13911 13.7703,4.25 0.0123,1.27636 -9.2763,0.7402 -13.49276,-0.77884 z m 51.25,-3.17689 c 1.2375,-0.23836 3.2625,-0.23836 4.5,0 1.2375,0.23835 0.225,0.43337 -2.25,0.43337 -2.475,0 -3.4875,-0.19502 -2.25,-0.43337 z M 127,263.10699 c 0,-0.49116 0.5625,-1.09987 1.25,-1.35269 1.75753,-0.64633 3.87459,0.23509 3.19721,1.33111 -0.72795,1.17786 -4.44721,1.19591 -4.44721,0.0216 z m 81.18045,-2.34677 c 0.35773,-2.50738 3.42335,-3.56564 5.17577,-1.78668 0.86074,0.87377 0.66343,1.51563 -0.79735,2.59378 -2.89831,2.13914 -4.75006,1.79779 -4.37842,-0.8071 z M 67.75,11.325638 C 63.589097,11.01777 62,10.499437 62,9.4500961 62,8.2648592 64.165,8 73.853309,8 89.369834,8 98.833223,8.9542006 96.464351,10.279888 94.550541,11.35091 76.819167,11.99667 67.75,11.325638 Z m 79.49372,-0.415253 c -10.59096,-0.324288 -19.55346,-0.886788 -19.91667,-1.2499997 -0.84509,-0.8450928 14.65766,-1.0111234 80.54862,-0.8626551 29.35661,0.066148 53.61911,0.3637187 53.91666,0.6612691 0.29755,0.2975504 0.24604,0.8359607 -0.11446,1.1964687 -0.83706,0.837056 -89.00741,1.033468 -114.43415,0.254917 z M 58.693853,6.3605198 C 57.627501,5.2941679 58.991346,4 61.181462,4 62.902237,4 63.038163,4.2490896 62,5.5 60.655741,7.119733 59.701448,7.3681151 58.693853,6.3605198 Z"
       style="display:none;fill:#878787"
       sodipodi:nodetypes="ssssssssssssssssssssssssssssssssssssssssssssssssssssssssssssssssssssssscssssssssssssssssssssssssssssssss" />
    <g
       id="g25">
      <path
         inkscape:original-d="M 0,0"
         inkscape:path-effect="#path-effect25"
         d="M 62.727083,8.6687674 C 49.990727,16.197549 49.231536,33.099199 42.980644,45.413218 29.410065,83.424115 11.884743,120.76292 6.6836545,161.13665 c -1.266448,19.13669 -1.2318154,39.16817 7.1722525,56.83055 10.771575,28.30804 36.288501,51.69993 66.470008,56.82629 6.274883,2.16017 19.955195,-3.8284 6.250778,-5.70285 C 61.401973,262.04841 36.552035,248.26069 21.709201,226.19692 6.6248451,202.73456 6.4648559,173.17015 11.249077,146.58526 20.583055,107.25362 37.659099,70.356015 51.573995,32.528928 55.491019,18.95654 62.271317,4.8716943 78.608746,10.523437 c 61.864794,0.362885 123.746244,0.715159 185.602714,-0.370289 16.64845,38.985944 33.81259,77.867612 47.85487,117.886932 5.20516,21.58161 9.145,44.3059 5.81505,66.46072 -7.98704,28.95535 -30.37187,52.49791 -57.7082,64.26945 -7.56761,5.9002 -26.56482,6.37252 -29.28644,11.97624 37.10979,3.40754 74.84892,-22.29707 85.10302,-58.26965 12.08362,-41.41178 0.46927,-85.39672 -15.8056,-123.991958 C 289.35358,61.828802 279.00987,34.796045 265.19193,9.5261893 254.00476,9.723475 238.50914,9.3515672 225.50712,9.3010144 171.24928,8.9834656 116.98331,8.2749277 62.727083,8.6687674 Z"
         id="path25" />
      <path
         d="M 62.727083,8.6687674 C 49.990727,16.197549 49.231536,33.099199 42.980644,45.413218 29.410065,83.424115 11.884743,120.76292 6.6836545,161.13665 c -1.266448,19.13669 -1.2318154,39.16817 7.1722525,56.83055 10.771575,28.30804 36.288501,51.69993 66.470008,56.82629 6.274883,2.16017 19.955195,-3.8284 6.250778,-5.70285 C 61.401973,262.04841 36.552035,248.26069 21.709201,226.19692 6.6248451,202.73456 6.4648559,173.17015 11.249077,146.58526 20.583055,107.25362 37.659099,70.356015 51.573995,32.528928 55.491019,18.95654 62.271317,4.8716943 78.608746,10.523437 c 61.864794,0.362885 123.746244,0.715159 185.602714,-0.370289 16.64845,38.985944 33.81259,77.867612 47.85487,117.886932 5.20516,21.58161 9.145,44.3059 5.81505,66.46072 -7.98704,28.95535 -30.37187,52.49791 -57.7082,64.26945 -7.56761,5.9002 -26.56482,6.37252 -29.28644,11.97624 37.10979,3.40754 74.84892,-22.29707 85.10302,-58.26965 12.08362,-41.41178 0.46927,-85.39672 -15.8056,-123.991958 C 289.35358,61.828802 279.00987,34.796045 265.19193,9.5261893 254.00476,9.723475 238.50914,9.3515672 225.50712,9.3010144 171.24928,8.9834656 116.98331,8.2749277 62.727083,8.6687674 Z"
         style="display:inline;fill:#777777"
         id="path11" />
      <path
         d="m 18.53763,3.6902518 c -15.3828124,-1.8339844 -15.3828124,-1.8339844 0,0 z M 58.027864,12.877752 C 56.173599,12.711221 51.499295,23.619644 39.197786,56.500799 24.980923,94.501577 18.141151,113.82961 16.551302,120.49885 c -1.403484,5.88745 0.392874,1.72719 6.908203,-16.00586 3.635837,-9.895827 8.665593,-23.167198 11.177734,-29.492191 2.512141,-6.324994 6.155713,-15.775006 8.097657,-21 1.941944,-5.224995 6.347722,-16.475009 9.789062,-25 3.441341,-8.524992 6.067782,-15.700869 5.837891,-15.945313 -0.09998,-0.106308 -0.210367,-0.166632 -0.333985,-0.177734 z m 209.205076,1.333984 c -0.57562,0.279665 0.87984,4.058616 4.83789,12.927735 2.7885,6.248423 7.561,17.436335 10.60743,24.861328 3.04643,7.424992 8.60517,20.700008 12.35156,29.5 3.74638,8.799991 7.7909,18.617911 8.98828,21.818361 1.19738,3.20044 2.42898,5.5671 2.73633,5.25976 0.30734,-0.30735 -0.14826,-2.25026 -1.01172,-4.31836 -0.86347,-2.0681 -6.61953,-16.584777 -12.79102,-32.259761 -13.00251,-33.02516 -22.39164,-54.868208 -24.48437,-56.960938 -0.62545,-0.625444 -1.0425,-0.921346 -1.23438,-0.828125 z m 40.14649,96.074214 c -0.21389,0.21388 0.11635,1.83626 0.73242,3.60352 0.61607,1.76726 1.29392,3.03811 1.50781,2.82422 0.21389,-0.21388 -0.1144,-1.83626 -0.73047,-3.60352 -0.61607,-1.76725 -1.29587,-3.0381 -1.50976,-2.82422 z M 15.740755,124.69416 c -0.205335,-0.005 -0.684249,0.86289 -1.240234,2.30664 -0.741314,1.925 -1.347657,4.175 -1.347657,5 0,0.825 0.606343,-0.075 1.347657,-2 0.741313,-1.925 1.347656,-4.175 1.347656,-5 0,-0.20625 -0.03898,-0.30508 -0.107422,-0.30664 z m 298.824215,7.4082 c -0.33903,0.1636 0.13452,4.07479 1.43164,10.37891 1.10857,5.38772 2.30485,12.90699 2.65821,16.70898 0.35336,3.802 0.97936,6.55222 1.39062,6.11133 0.81804,-0.87696 -2.10209,-22.17703 -3.99609,-29.15234 -0.78581,-2.89401 -1.28096,-4.14504 -1.48438,-4.04688 z m -302.810543,5.98047 c -0.114209,0.0154 -0.327574,0.52326 -0.736328,1.53516 -0.470545,1.16486 -1.1208983,4.31487 -1.4453126,7 l -0.5898438,4.88281 1.4648434,-5 c 0.805549,-2.75 1.455903,-5.9 1.445313,-7 -0.0092,-0.95555 -0.02446,-1.43337 -0.138672,-1.41797 z m -4.3046875,23.94141 c -4.2949219,-160.1679726 -4.2949219,-160.1679726 0,0 z"
         style="display:inline;fill:#505050"
         id="path2"
         sodipodi:nodetypes="ccsssssssssssssssssssssssscsssscsssssssscccssss" />
      <path
         inkscape:connector-curvature="0"
         id="path2453"
         d="m 38.632451,61 c 0.946369,-3.848236 3.197661,-8.682668 3.259751,-7 0.03044,0.825 -0.828879,3.3 -1.909604,5.5 -1.09798,2.235126 -1.69369,2.896954 -1.350147,1.5 z m 4.398175,-12.5 c 0,-0.55 0.436218,-1.675 0.969374,-2.5 0.533156,-0.825 0.969374,-1.05 0.969374,-0.5 0,0.55 -0.436218,1.675 -0.969374,2.5 -0.533156,0.825 -0.969374,1.05 -0.969374,0.5 z M 45.573214,42 c 0.367791,-1.375 1.085766,-3.175 1.595498,-4 0.644109,-1.042487 0.722824,-0.737478 0.258074,1 -0.367791,1.375 -1.085766,3.175 -1.595498,4 -0.644109,1.042487 -0.722824,0.737478 -0.258074,-1 z M 48,35.85807 c 0,-0.860828 6.062225,-17.105822 7.123416,-19.088674 0.571243,-1.067379 1.266929,-1.712384 1.545968,-1.433345 0.279039,0.279039 -1.377673,4.93008 -3.681582,10.335646 C 49.08669,34.824717 48,37.044017 48,35.85807 Z M 271.62354,24.461341 c -0.96498,-2.514694 -0.68031,-3.163555 0.49853,-1.136338 0.58369,1.003751 0.8506,2.035659 0.59313,2.293128 -0.25747,0.257469 -0.74872,-0.263087 -1.09166,-1.15679 z"
         style="display:inline;fill:#2a2a2a"
         sodipodi:nodetypes="scsssssssssssssssssssss" />
      <path
         style="fill:none;stroke:#000000;stroke-width:1px;stroke-linecap:butt;stroke-linejoin:miter;stroke-opacity:1"
         d="m 61.491127,12.462869 c -10.253048,10.253048 0,0 0,0 z"
         id="path1"
         sodipodi:nodetypes="cc" />
      <path
         id="path12"
         style="display:inline;fill:#777777"
         d="M 62.455599 9.256658 C 60.180438 10.161105 55.64547 13.785522 54.459505 16.078924 C 53.114568 18.679734 41.556698 48.971014 32.119661 74.217596 C 27.171392 87.455529 22.664582 99.636188 20.824739 105.0008 C 14.30912 123.99908 9.158094 142.88907 7.5337238 153.74299 C 4.741504 172.40036 6.2171608 200.77934 10.402864 208.89728 C 11.140729 210.32833 12.315153 213.3008 13.012239 215.5008 C 17.12775 228.48916 27.524531 244.3381 37.650911 253.06135 C 48.055321 262.02399 51.171732 264.20104 57.766146 267.11603 C 59.617922 267.93459 61.526747 268.78987 63.109896 269.50861 C 64.693044 270.22735 65.950526 270.80955 66.500521 271.08088 C 67.050515 271.35221 68.056768 271.75619 69.234896 272.1883 C 70.413023 272.62043 71.763032 273.08069 73.000521 273.46564 C 79.289934 275.42211 86.773133 275.14019 90.639193 273.96369 C 94.505251 272.78718 94.754182 270.71609 86.576693 269.09064 C 78.440093 267.47332 60.454221 259.74316 50.867708 253.74299 C 42.503559 248.50779 29.001282 236.77193 24.955599 231.2215 C 19.445352 223.66189 12.02774 207.67009 10.938021 201.0008 C 6.0213454 170.90966 8.4343455 148.32996 20.020052 116.0008 C 22.877999 108.02591 26.896497 96.775733 28.951693 91.000799 C 30.1555 87.618168 31.931337 82.94971 33.746614 78.284002 C 35.030445 74.984249 36.351747 71.620943 37.432161 69.000799 C 40.040241 62.675865 44.34272 51.650721 46.994661 44.500799 C 49.646612 37.350876 53.614814 27.225733 55.813021 22.000799 C 57.790274 17.30103 62.249475 11.446336 63.080599 10.037908 C 63.112979 10.060578 63.108279 10.088114 63.143099 10.110174 C 64.667975 11.07638 252.61517 11.082767 264.21146 10.153142 C 264.96635 12.640519 267.61088 18.28005 270.47318 24.733221 C 282.05704 50.849772 306.8567 111.83506 310.84036 124.0008 C 317.57325 144.56185 321.28068 181.68192 317.88138 194.5008 C 315.55382 203.27808 307.87982 219.0072 302.54349 225.9422 C 297.0338 233.10245 285.76652 243.72754 278.32474 248.77814 C 266.8589 256.55979 247.6869 264.96553 236.60013 267.07306 C 235.25241 267.32925 233.85725 267.70333 232.69388 268.09845 C 231.53051 268.49357 230.59893 268.90974 230.18216 269.25275 C 229.54556 269.77668 229.34323 270.11177 229.76419 270.3797 C 230.18516 270.64765 231.22942 270.84846 233.08451 271.10041 C 252.64005 273.75635 346.38696 256.86276 314.37357 128.70978 C 309.44176 111.73316 309.00086 110.51956 295.7974 77.500799 C 280.87956 40.195137 267.15769 11.491926 265.19193 9.5261893 L 62.455599 9.256658 z " />
      <rect
         style="fill:#800000;fill-opacity:1;stroke:#000000;stroke-width:0;stroke-opacity:0"
         id="rect14"
         width="156.125"
         height="9.25"
         x="81.529816"
         y="268.48126" />
    </g>
  </g>
</svg>
