<?xml version="1.0" encoding="UTF-8" standalone="no"?>
<!-- Created with Inkscape (http://www.inkscape.org/) -->

<svg
   width="210mm"
   height="297mm"
   viewBox="0 0 210 297"
   version="1.1"
   id="svg1"
   inkscape:version="1.3.2 (091e20e, 2023-11-25, custom)"
   sodipodi:docname="Snifter_foreground.svg"
   xmlns:inkscape="http://www.inkscape.org/namespaces/inkscape"
   xmlns:sodipodi="http://sodipodi.sourceforge.net/DTD/sodipodi-0.dtd"
   xmlns="http://www.w3.org/2000/svg"
   xmlns:svg="http://www.w3.org/2000/svg">
  <sodipodi:namedview
     id="namedview1"
     pagecolor="#ffffff"
     bordercolor="#666666"
     borderopacity="1.0"
     inkscape:showpageshadow="2"
     inkscape:pageopacity="0.0"
     inkscape:pagecheckerboard="0"
     inkscape:deskcolor="#d1d1d1"
     inkscape:document-units="mm"
     inkscape:zoom="1.0520974"
     inkscape:cx="396.35115"
     inkscape:cy="561.25984"
     inkscape:window-width="3440"
     inkscape:window-height="1377"
     inkscape:window-x="-8"
     inkscape:window-y="-8"
     inkscape:window-maximized="1"
     inkscape:current-layer="layer1" />
  <defs
     id="defs1" />
  <g
     inkscape:label="Layer 1"
     inkscape:groupmode="layer"
     id="layer1">
    <path
       inkscape:connector-curvature="0"
       id="path2481"
       d="M 104.97972,88.408861 C 0,0 0,0 104.97972,88.408861 Z m 6.70804,69.585419 c 0.21506,0 0.21643,-0.0794 0.005,-0.29087 -0.34797,-0.34797 -1.48089,-0.0501 -1.24725,0.32796 0.0896,0.14496 0.33918,0.19592 0.55465,0.11324 0.21545,-0.0827 0.52488,-0.15033 0.6876,-0.15033 z M 92.409272,154.3941 c 0.635911,-0.24402 0.499899,-0.63315 -0.221302,-0.63315 -0.810062,0 -1.476849,0.25169 -1.476849,0.55747 0,0.26893 1.070253,0.31662 1.698151,0.0757 z m -5.666901,-11.09981 c 0,-0.45093 0.310686,-0.49391 0.706812,-0.0978 0.201584,0.20158 0.497703,0.0849 1.025005,-0.40375 0.567634,-0.52606 0.668681,-0.76007 0.430898,-0.99785 -0.473081,-0.47308 -0.372131,-0.70051 0.239897,-0.54046 0.535671,0.14008 0.545558,0.0841 0.366332,-2.07529 -0.101309,-1.22059 -0.341035,-2.83859 -0.532725,-3.59556 -0.224825,-0.8878 -0.269928,-1.68603 -0.12708,-2.24895 0.361323,-1.42385 0.536282,-8.29384 0.235858,-9.26122 -0.148918,-0.47952 -0.264401,-1.2705 -0.256628,-1.75773 0.0078,-0.48723 -0.152175,-1.05219 -0.355446,-1.25546 -0.301081,-0.30108 -0.348694,-1.44585 -0.256876,-6.17616 0.06199,-3.19361 0.22815,-6.1102 0.369242,-6.48131 0.291393,-0.76642 0.137848,-1.36617 -0.402881,-1.57367 -0.541672,-0.20786 -1.131256,0.50896 -1.341057,1.63046 -0.10121,0.54102 -0.322111,1.10274 -0.490891,1.24826 -0.388331,0.33482 -1.092118,2.65674 -1.572504,5.18798 -0.204145,1.07567 -0.505249,2.43202 -0.66912,3.0141 -0.163871,0.58209 -0.46769,2.07037 -0.675153,3.3073 -1.589188,9.47499 -1.905763,11.53431 -1.800832,11.71442 0.0657,0.11277 0.151872,1.24386 0.191482,2.51354 0.06867,2.20108 0.588756,4.53976 1.290497,5.80298 0.404764,0.72862 3.090393,2.75792 3.398169,2.5677 0.124851,-0.0772 0.227001,-0.31186 0.227001,-0.52155 z m 37.885579,-4.66887 c 1.09721,-1.18725 1.27275,-1.52946 1.27275,-2.48115 0,-0.65851 0.16014,-1.23685 0.39688,-1.43332 0.21828,-0.18116 0.39687,-0.59992 0.39687,-0.93057 0,-0.6986 -0.91014,-3.7504 -1.40018,-4.69495 -0.48224,-0.92951 -2.03237,-2.51301 -2.60721,-2.66334 -0.59988,-0.15687 -0.60543,-0.32107 0.0724,2.14216 0.64455,2.34226 0.86607,8.41211 0.33147,9.08251 -0.16293,0.20431 -0.37668,0.81796 -0.47501,1.36366 -0.26094,1.44817 0.44222,1.31362 2.01203,-0.385 z m -3.35998,-0.0114 c 0.14691,-0.52213 0.35641,-1.03844 0.46555,-1.14737 0.10914,-0.10892 0.19843,-0.55134 0.19843,-0.98315 0,-0.4318 0.13801,-1.24571 0.30668,-1.80868 0.2358,-0.78704 0.23097,-1.375 -0.0209,-2.54424 -0.68473,-3.17881 -1.85,-4.26314 -2.15262,-2.0031 -0.0809,0.60396 -0.30475,1.28815 -0.49752,1.52041 -0.22468,0.27073 -0.29965,0.80126 -0.20886,1.47811 0.0839,0.62524 0.0331,1.0558 -0.12444,1.0558 -0.15886,0 -0.2089,0.45305 -0.1242,1.12448 0.26543,2.10419 0.49579,2.84427 0.88534,2.84427 0.26369,0 0.33209,0.16568 0.21747,0.5268 -0.092,0.28974 -0.0891,0.65321 0.006,0.80772 0.3058,0.49478 0.7737,0.10612 1.04864,-0.87105 z M 91.644163,91.634961 c -0.08146,-0.08146 -0.294954,-1.68e-4 -0.474432,0.180653 -0.25936,0.261307 -0.22897,0.291698 0.148114,0.148113 0.260937,-0.09936 0.407781,-0.247304 0.326318,-0.328766 z"
       style="display:inline;fill:#f1f1f1;stroke-width:0.264583"
       sodipodi:nodetypes="ssscssssssssssssssssssssssssssssssssssssssssssscssssssssssscccssss" />
  </g>
</svg>
