<?xml version="1.0" encoding="UTF-8" standalone="no"?>
<svg
   viewBox="0 0 100 100"
   version="1.1"
   id="svg29"
   sodipodi:docname="TrashcanButton-Transparent.svg"
   inkscape:version="1.1 (c68e22c387, 2021-05-23)"
   xmlns:inkscape="http://www.inkscape.org/namespaces/inkscape"
   xmlns:sodipodi="http://sodipodi.sourceforge.net/DTD/sodipodi-0.dtd"
   xmlns="http://www.w3.org/2000/svg"
   xmlns:svg="http://www.w3.org/2000/svg"
   xmlns:rdf="http://www.w3.org/1999/02/22-rdf-syntax-ns#"
   xmlns:cc="http://creativecommons.org/ns#"
   xmlns:dc="http://purl.org/dc/elements/1.1/">
  <sodipodi:namedview
     id="namedview31"
     pagecolor="#ffffff"
     bordercolor="#666666"
     borderopacity="1.0"
     inkscape:pageshadow="2"
     inkscape:pageopacity="0.0"
     inkscape:pagecheckerboard="false"
     showgrid="false"
     inkscape:zoom="8.73"
     inkscape:cx="39.805269"
     inkscape:cy="50"
     inkscape:window-width="3440"
     inkscape:window-height="1377"
     inkscape:window-x="1912"
     inkscape:window-y="-8"
     inkscape:window-maximized="1"
     inkscape:current-layer="svg29" />
  <defs
     id="defs7">
    <style
       id="style2">.cls-1{fill:none;}.cls-2{fill:#b9529f;}.cls-3{clip-path:url(#clip-path);}</style>
    <clipPath
       id="clip-path">
      <polygon
         class="cls-1"
         points="69.51 32.44 35.03 32.44 30.49 32.44 30.49 10.56 69.51 10.56 69.51 32.44"
         id="polygon4" />
    </clipPath>
  </defs>
  <title
     id="title9">Asset 1</title>
  <rect
     class="cls-1"
     width="100"
     height="100"
     rx="8"
     id="rect11"
     x="0"
     y="0" />
  <path
     class="cls-2"
     d="m 65.22,44.05 v 30.78 c 0,1 -1.31,1.88 -2.92,1.88 -1.61,0 -2.91,-0.84 -2.91,-1.88 V 44.05 c 0,-1 1.31,-1.88 2.91,-1.88 1.6,0 2.92,0.83 2.92,1.88 z"
     id="path13"
     style="fill:#ffffff" />
  <path
     class="cls-2"
     d="m 52.91,44.05 v 30.78 c 0,1 -1.3,1.88 -2.91,1.88 -1.61,0 -2.91,-0.84 -2.91,-1.88 V 44.05 c 0,-1 1.3,-1.88 2.91,-1.88 1.61,0 2.91,0.83 2.91,1.88 z"
     id="path15"
     style="fill:#ffffff" />
  <path
     class="cls-2"
     d="m 40.61,44.05 v 30.78 c 0,1 -1.31,1.88 -2.91,1.88 -1.6,0 -2.92,-0.84 -2.92,-1.88 V 44.05 c 0,-1 1.31,-1.88 2.92,-1.88 1.61,0 2.91,0.83 2.91,1.88 z"
     id="path17"
     style="fill:#ffffff" />
  <path
     class="cls-2"
     d="M 70.31,89.44 H 29.69 A 6.7,6.7 0 0 1 23,82.75 V 36.13 a 6.7,6.7 0 0 1 6.69,-6.69 H 70.31 A 6.7,6.7 0 0 1 77,36.13 v 46.62 a 6.7,6.7 0 0 1 -6.69,6.69 z m -40.62,-54 A 0.69,0.69 0 0 0 29,36.13 v 46.62 a 0.69,0.69 0 0 0 0.69,0.69 H 70.31 A 0.69,0.69 0 0 0 71,82.75 V 36.13 a 0.69,0.69 0 0 0 -0.69,-0.69 z"
     id="path19"
     style="fill:#ffffff" />
  <path
     class="cls-2"
     d="M 78.87,35.35 H 21.13 c -1.95,0 -3.53,-1.3 -3.53,-2.91 0,-1.61 1.58,-2.91 3.53,-2.91 h 57.74 c 1.95,0 3.53,1.3 3.53,2.91 0,1.61 -1.58,2.91 -3.53,2.91 z"
     id="path21"
     style="fill:#ffffff" />
  <g
     class="cls-3"
     clip-path="url(#clip-path)"
     id="g25">
    <path
       class="cls-2"
       d="m 54.5,48.94 h -9 a 12,12 0 0 1 -12,-12 v -9 a 12,12 0 0 1 12,-12 h 9 a 12,12 0 0 1 12,12 v 9 a 12,12 0 0 1 -12,12 z m -9,-27 a 6,6 0 0 0 -6,6 v 9 a 6,6 0 0 0 6,6 h 9 a 6,6 0 0 0 6,-6 v -9 a 6,6 0 0 0 -6,-6 z"
       id="path23"
       style="fill:#ffffff" />
  </g>
  <metadata
     id="metadata1215">
    <rdf:RDF>
      <cc:Work
         rdf:about="">
        <dc:title>Asset 1</dc:title>
      </cc:Work>
    </rdf:RDF>
  </metadata>
</svg>
