<?xml version="1.0" encoding="UTF-8" standalone="no"?>
<!-- Created with Inkscape (http://www.inkscape.org/) -->

<svg
   id="svg10"
   version="1.1"
   inkscape:version="1.2 (dc2aedaf03, 2022-05-15)"
   width="100"
   height="406.01904"
   sodipodi:docname="Wine_bottle.svg"
   xmlns:inkscape="http://www.inkscape.org/namespaces/inkscape"
   xmlns:sodipodi="http://sodipodi.sourceforge.net/DTD/sodipodi-0.dtd"
   xmlns="http://www.w3.org/2000/svg"
   xmlns:svg="http://www.w3.org/2000/svg"
   xmlns:rdf="http://www.w3.org/1999/02/22-rdf-syntax-ns#"
   xmlns:cc="http://creativecommons.org/ns#"
   xmlns:dc="http://purl.org/dc/elements/1.1/">
  <metadata
     id="metadata16">
    <rdf:RDF>
      <cc:Work
         rdf:about="">
        <dc:format>image/svg+xml</dc:format>
        <dc:type
           rdf:resource="http://purl.org/dc/dcmitype/StillImage" />
      </cc:Work>
    </rdf:RDF>
  </metadata>
  <defs
     id="defs14" />
  <sodipodi:namedview
     pagecolor="#ffffff"
     bordercolor="#666666"
     borderopacity="1"
     objecttolerance="10"
     gridtolerance="10"
     guidetolerance="10"
     inkscape:pageopacity="0"
     inkscape:pageshadow="2"
     inkscape:window-width="3440"
     inkscape:window-height="1369"
     id="namedview12"
     showgrid="false"
     inkscape:zoom="1.8644444"
     inkscape:cx="-154.20143"
     inkscape:cy="207.56854"
     inkscape:window-x="-8"
     inkscape:window-y="-8"
     inkscape:window-maximized="1"
     inkscape:current-layer="svg10"
     inkscape:showpageshadow="2"
     inkscape:pagecheckerboard="0"
     inkscape:deskcolor="#d1d1d1">
    <sodipodi:guide
       position="-98.499999,424.25504"
       orientation="0,297"
       id="guide2837"
       inkscape:locked="false" />
    <sodipodi:guide
       position="198.5,424.25504"
       orientation="450,0"
       id="guide2839"
       inkscape:locked="false" />
    <sodipodi:guide
       position="198.5,-25.744963"
       orientation="0,-297"
       id="guide2841"
       inkscape:locked="false" />
    <sodipodi:guide
       position="-98.499999,-25.744963"
       orientation="-450,0"
       id="guide2843"
       inkscape:locked="false" />
  </sodipodi:namedview>
  <path
     id="rect20"
     d="M 1.2593731e-6,145.35161 H 100 V 380.27414 H 1.2593731e-6 Z" />
  <path
     id="rect22"
     d="m 20.000001,364.71988 h 60 c 11.08,0 19.999999,4.46 19.999999,10 v 21.29917 c 0,5.54 -8.919999,10 -19.999999,10 h -60 c -11.0799997,0 -19.9999997406269,-4.46 -19.9999997406269,-10 v -21.29917 c 0,-5.54 8.9200000406269,-10 19.9999997406269,-10 z" />
  <path
     id="path24"
     d="m 99.999998,144.54707 a 50,32.449345 0 0 1 -50,32.44935 A 50,32.449345 0 0 1 0,144.54707 a 50,32.449345 0 0 1 49.999998,-32.44934 50,32.449345 0 0 1 50,32.44934 z"
     style="stroke-width:1.01774" />
  <path
     id="rect26"
     d="m 40.959471,0 h 18.08105 c 5.54,0 10,2.23 10,5 v 117.65197 c 0,2.77 -4.46,5 -10,5 h -18.08105 c -5.54,0 -10,-2.23 -10,-5 V 5 c 0,-2.77 4.46,-5 10,-5 z" />
  <rect
     style="fill:#000000;fill-opacity:1;fill-rule:nonzero;stroke:none"
     id="rect28"
     width="41.597069"
     height="23.283083"
     x="29.201464"
     y="8.3777161"
     rx="5"
     ry="5.0000005" />
</svg>
