<?xml version="1.0" encoding="UTF-8" standalone="no"?>
<!-- Created with Inkscape (http://www.inkscape.org/) -->

<svg
   width="320.84128"
   height="453.80316"
   id="svg2485"
   sodipodi:version="0.32"
   inkscape:version="1.3.2 (091e20e, 2023-11-25, custom)"
   version="1.0"
   sodipodi:docname="Snifter_outline.svg"
   xmlns:inkscape="http://www.inkscape.org/namespaces/inkscape"
   xmlns:sodipodi="http://sodipodi.sourceforge.net/DTD/sodipodi-0.dtd"
   xmlns="http://www.w3.org/2000/svg"
   xmlns:svg="http://www.w3.org/2000/svg"
   xmlns:rdf="http://www.w3.org/1999/02/22-rdf-syntax-ns#"
   xmlns:cc="http://creativecommons.org/ns#"
   xmlns:dc="http://purl.org/dc/elements/1.1/">
  <defs
     id="defs2487" />
  <sodipodi:namedview
     id="base"
     pagecolor="#ffffff"
     bordercolor="#666666"
     borderopacity="1.0"
     gridtolerance="10000"
     guidetolerance="10"
     objecttolerance="10"
     inkscape:pageopacity="0.0"
     inkscape:pageshadow="2"
     inkscape:zoom="2"
     inkscape:cx="-145.75"
     inkscape:cy="193.75"
     inkscape:document-units="px"
     inkscape:current-layer="layer2"
     width="328px"
     height="456px"
     inkscape:window-width="3440"
     inkscape:window-height="1377"
     inkscape:window-x="-8"
     inkscape:window-y="-8"
     showgrid="false"
     fit-margin-top="0"
     fit-margin-left="0"
     fit-margin-right="0"
     fit-margin-bottom="0"
     inkscape:window-maximized="1"
     inkscape:showpageshadow="2"
     inkscape:pagecheckerboard="0"
     inkscape:deskcolor="#d1d1d1" />
  <metadata
     id="metadata2490">
    <rdf:RDF>
      <cc:Work
         rdf:about="">
        <dc:format>image/svg+xml</dc:format>
        <dc:type
           rdf:resource="http://purl.org/dc/dcmitype/StillImage" />
      </cc:Work>
    </rdf:RDF>
  </metadata>
  <g
     inkscape:groupmode="layer"
     id="layer2"
     inkscape:label="Layer 2"
     style="display:inline">
    <path
       d="m 122.03355,451.73612 c -8e-5,-0.4667 15.86242,-0.84855 35.25,-0.84855 28.70032,0 37.29407,-0.32491 46.25016,-1.7486 6.05,-0.96173 12.575,-1.87694 14.5,-2.0338 l 3.5,-0.2852 -4.97614,-1.56402 -4.97613,-1.56401 3.47613,-1.06753 c 1.91188,-0.58714 6.40114,-1.35508 9.97614,-1.70653 9.46298,-0.93028 28.96712,-4.44235 31.14581,-5.60835 1.54778,-0.82834 2.04513,-0.54995 2.86364,1.6029 0.5448,1.43294 0.99055,3.24067 0.99055,4.01719 0,3.87304 -9.50001,6.30428 -35.5,9.08512 -17.52842,1.87477 -102.49987,3.30177 -102.50016,1.72138 z M 95.533703,450.372 c -17.07822,-1.35529 -29.73002,-4.81433 -31.15076,-8.5167 -0.37398,-0.97459 0.186,-2.44741 1.38725,-3.64866 1.96818,-1.96819 2.22764,-1.97774 11.31516,-0.41672 5.11543,0.87871 10.6569,1.59765 12.31437,1.59765 2.80885,0 13.242757,1.69237 16.633987,2.69802 1.23803,0.36713 1.16845,0.68886 -0.39838,1.84214 -2.8403,2.09063 -0.45722,4.27745 5.5263,5.0712 2.70433,0.35874 5.15843,1.04294 5.45354,1.52045 0.60311,0.97584 -7.65509,0.91811 -21.081467,-0.14738 z m 30.042717,-5.91533 c -0.99675,-1.61276 1.08522,-2.08242 6.1038,-1.37691 4.12356,0.57968 4.47751,0.78954 2.35349,1.39537 -3.68917,1.05227 -7.8011,1.04329 -8.45729,-0.0185 z m 5.9189,-5.13121 c -0.86228,-1.3952 0.8672,-1.67605 7.27378,-1.18123 3.42946,0.26489 5.98942,0.87959 5.6888,1.36601 -0.67293,1.08881 -12.27769,0.92339 -12.96258,-0.18478 z m 64.10315,0.16689 c -0.74265,-1.20163 2.03871,-2.19417 4.01909,-1.43423 1.27522,0.48935 1.32393,0.77253 0.25,1.4533 -1.74659,1.10716 -3.5781,1.09898 -4.26909,-0.0191 z M 95.533703,438.27793 c -2.2,-0.42631 -6.11094,-0.80103 -8.69098,-0.83273 -8.18747,-0.10059 -7.07518,-4.16902 1.53321,-5.60803 4.83123,-0.8076 21.759767,-5.89863 24.512287,-7.37173 1.96583,-1.05209 5.97123,-0.16801 11.47653,2.53311 1.55707,0.76396 3.70869,1.38902 4.78138,1.38902 1.07269,0 2.23979,0.7875 2.59355,1.75 0.35377,0.9625 1.23964,2.10986 1.96862,2.54969 2.62088,1.58132 1.23282,2.46997 -3.92459,2.51258 -5.39211,0.0445 -13.42746,-1.49439 -15.30996,-2.93217 -1.28898,-0.98446 -8.57096,1.09905 -7.86026,2.24898 0.27756,0.44911 2.28566,1.29614 4.46244,1.88229 2.17678,0.58614 3.95778,1.47481 3.95778,1.97481 0,1.07892 -13.78723,1.01117 -19.500007,-0.0958 z m 110.740567,-3.38542 c 0.16902,-2.92837 0.72067,-4.49679 1.58276,-4.5 2.08891,-0.008 0.87776,-3.4472 -1.3348,-3.79058 -1.09369,-0.16973 -3.56352,-0.92425 -5.48852,-1.6767 -1.925,-0.75246 -4.36275,-1.646 -5.41722,-1.98566 -1.44196,-0.46448 -1.63289,-0.90189 -0.7702,-1.76458 0.86268,-0.86268 1.75501,-0.82161 3.59975,0.16566 1.34901,0.72197 3.17253,1.03647 4.05226,0.69888 2.90249,-1.11379 18.65588,3.45152 25.16763,7.29355 1.74535,1.02978 5.69211,2.39522 8.77058,3.03431 8.83366,1.83386 6.66699,4.57373 -3.9028,4.93528 -3.3,0.11288 -9.15,0.61426 -13,1.11419 -3.85,0.49993 -8.46675,0.92285 -10.25944,0.93983 -3.23829,0.0307 -3.25775,0.002 -3,-4.46418 z m 11.47469,-0.13173 c 0.68373,-2.0863 -2.59741,-2.29015 -4.91638,-0.30544 l -2.29887,1.9675 3.42299,-0.26764 c 1.88264,-0.14719 3.58916,-0.77469 3.79226,-1.39442 z m -63.93982,2.06889 c -0.30685,-0.30685 -0.34043,-1.38954 -0.0746,-2.40598 0.90132,-3.44665 12.39089,-3.84548 13.68427,-0.47501 0.30368,0.79139 1.24127,1.43889 2.08354,1.43889 0.84226,0 1.53138,0.45 1.53138,1 0,1.04066 -16.20995,1.45672 -17.22457,0.4421 z m 34.47457,-7.16038 c -1.71758,-0.61611 -1.57816,-2.28172 0.19098,-2.28172 1.65637,0 2.96732,1.64896 1.82533,2.29596 -0.42147,0.23878 -1.32881,0.23237 -2.01631,-0.0142 z m -33.25,-6.78172 c -1.07564,-1.29606 -0.62446,-1.5 3.31854,-1.5 4.96861,0 7.00415,1.41208 3.42021,2.37266 -3.59601,0.96381 -5.40952,0.72896 -6.73875,-0.87266 z m -24.92586,-0.37726 c -3.50879,-0.98053 -4.16618,-3.61364 -0.684,-2.73967 1.458,0.36593 3.48603,0.21839 4.50675,-0.32788 1.33399,-0.71394 3.31862,-0.47809 7.05785,0.83873 3.656,1.2875 4.70862,2.02128 3.54185,2.46902 -2.10009,0.80588 -11.22277,0.65394 -14.42245,-0.2402 z m -4.32362,-7.78102 -3.74949,-1.55522 3.08352,-3.89325 c 3.18615,-4.02285 4.91545,-4.90789 4.91545,-2.51569 0,0.75765 0.675,1.93775 1.5,2.62244 0.825,0.68469 1.5,2.53979 1.5,4.12244 0,3.35415 -1.49594,3.60575 -7.24948,1.21928 z m 64.24948,1.15962 c 0,-0.39194 1.125,-2.04961 2.5,-3.68371 1.375,-1.63409 2.5,-3.85068 2.5,-4.92574 0,-2.34195 -2.67889,-3.613 -4.26722,-2.02467 -0.62303,0.62303 -1.83028,1.10918 -2.68278,1.08033 -1.12602,-0.0381 -0.93455,-0.48177 0.7,-1.62197 2.45339,-1.7114 3.02752,-4.32558 0.95,-4.32558 -0.715,0 -1.80689,0.50689 -2.42642,1.12642 -1.46484,1.46484 -25.94141,3.14064 -34.06268,2.33213 -3.79853,-0.37816 -6.96664,-1.28596 -8,-2.29233 -0.94099,-0.91642 -3.5109,-2.54833 -5.7109,-3.62647 -2.2,-1.07813 -4.18474,-2.08787 -4.41054,-2.24386 -0.22579,-0.156 0.27795,-1.07389 1.11943,-2.03976 0.84149,-0.96587 1.79092,-2.88113 2.10986,-4.25613 0.31894,-1.375 1.68012,-6.38366 3.02484,-11.13035 2.9783,-10.51305 3.83788,-31.71077 1.79487,-44.26277 -1.29398,-7.95006 -4.98448,-19.84573 -7.68189,-24.76117 -2.00085,-3.64614 -1.83294,-4.63092 0.79343,-4.65335 1.2375,-0.0106 10.575,-0.32223 20.75,-0.6926 16.81886,-0.61221 32.10247,0.26938 33.78168,1.94858 0.32174,0.32175 0.0915,1.07852 -0.51175,1.68173 -0.79564,0.79564 -4.34627,0.75035 -12.93333,-0.16497 -12.5707,-1.33995 -36.48907,-0.21263 -38.51709,1.81539 -1.46812,1.46812 0.77464,2.506 5.82437,2.69532 5.00951,0.18782 7.08832,1.44864 2.77279,1.68172 -1.60417,0.0866 -3.50123,0.13297 -4.21569,0.10295 -0.71446,-0.03 -1.10821,0.46158 -0.875,1.09246 0.23321,0.63088 0.90439,1.04319 1.49152,0.91623 0.58712,-0.12696 1.96181,0.90611 3.05487,2.29571 1.81527,2.30774 1.865,2.81943 0.57423,5.90869 -1.13314,2.71198 -1.22407,5.36671 -0.45887,13.39766 1.05214,11.0425 0.64191,25.14185 -0.99401,34.16339 -1.15756,6.38356 -0.69396,9.4949 2.26711,15.21538 1.60028,3.09157 2.49402,3.76234 5.09014,3.82029 1.73197,0.0387 4.04903,0.45702 5.14903,0.92971 2,0.85943 2,0.85943 0,1.02661 -3.28406,0.27451 -9.79474,-0.0601 -13,-0.6682 -2.34873,-0.44557 -2.74591,-0.303 -1.82955,0.65669 1.98875,2.0828 26.61215,3.32775 34.32955,1.73569 7.03399,-1.45108 7.98675,-3.38192 1.5,-3.03987 l -4,0.21093 3.5,-1.71093 c 1.925,-0.941 3.65,-2.04842 3.83333,-2.46092 0.96452,-2.17015 3.14256,0.0609 7.13971,7.31367 2.44425,4.43501 5.96031,9.83501 7.81345,12 3.1563,3.68742 3.23111,3.93633 1.18303,3.93633 -1.83275,0 -2.08486,0.40432 -1.55888,2.5 0.54074,2.15447 0.2906,2.5 -1.8098,2.5 -1.3405,0 -3.14907,0.27314 -4.01905,0.60699 -0.86999,0.33384 -1.58179,0.2863 -1.58179,-0.10565 z m -58.80963,-13.25134 c 0.18536,-0.9625 0.99969,-1.75 1.80963,-1.75 0.80994,0 1.62427,0.7875 1.80963,1.75 0.23646,1.22785 -0.30348,1.75 -1.80963,1.75 -1.50615,0 -2.04609,-0.52215 -1.80963,-1.75 z m 49.08317,-36.85687 c -1.46545,-3.58649 -0.84077,-29.58933 0.80029,-33.31282 1.39791,-3.17178 1.48338,-2.05142 1.17901,15.45433 -0.18048,10.3807 -0.52562,19.07147 -0.76696,19.31281 -0.24134,0.24134 -0.7869,-0.4131 -1.21234,-1.45432 z m 4.81206,-48.39313 c -0.0302,-0.825 0.38124,-2.175 0.9144,-3 1.18132,-1.82797 1.18132,-0.24909 0,2.5 -0.56668,1.31874 -0.87815,1.48906 -0.9144,0.5 z m -30.71018,-5.20186 c -0.23868,-0.38603 5.87922,-0.67294 13.59531,-0.63758 8.01311,0.0367 14.02927,0.46617 14.02927,1.00144 0,1.08026 -26.95118,0.72527 -27.62458,-0.36386 z m -31.37542,-14.79814 c -1.82797,-1.18132 -0.24909,-1.18132 2.5,0 1.31874,0.56668 1.48906,0.87815 0.5,0.9144 -0.825,0.0302 -2.175,-0.38124 -3,-0.9144 z m -8.75,-10.03116 c -1.2375,-0.49742 -2.25,-1.36889 -2.25,-1.93662 0,-0.56772 1.0125,-1.05252 2.25,-1.07732 1.2375,-0.0248 3.6,-0.68362 5.25,-1.46403 2.78601,-1.31772 2.46502,-1.37195 -4.5,-0.76034 -9.75083,0.85625 -15.271184,0.70674 -21.876387,-0.59246 -6.69185,-1.31625 -7.6558,-2.13338 -2.54029,-2.15338 5.36719,-0.021 7.842023,-1.62024 3.86452,-2.49727 -1.62132,-0.35749 -4.07285,-1.04579 -5.44785,-1.52955 -1.375,-0.48376 -5.425,-1.37559 -9,-1.98184 -7.37435,-1.25055 -15.71215,-3.54123 -17.37861,-4.77451 -0.61676,-0.45644 -4.19558,-2.10473 -7.95293,-3.66288 -3.75735,-1.55814 -8.70735,-4.32423 -11,-6.14685 -2.29265,-1.82262 -6.07374,-4.79389 -8.40241,-6.60282 -11.82282,-9.18405 -24.928429,-31.91479 -30.2058295,-52.38983 -1.96578,-7.62677 -2.95748,-26.52271 -1.98173,-37.76002 2.15675,-24.83831 7.4511305,-42.11101 36.3469795,-118.580653 7.7485,-20.50554 12.32081,-31.25929 14.00849,-32.94697 5.53996,-5.53996 5.09319,-4.19174 -16.69779,50.3885 -9.39313,23.52714 -23.62736,63.671623 -26.061259,73.500003 -3.3033505,13.3393 -4.7463305,24.80578 -4.7820705,38 -0.0506,18.6869 2.32892,29.91171 9.3101095,43.91813 4.49447,9.01729 6.54357,11.84686 13.85878,19.13747 9.14911,9.11835 18.98264,16.20586 29.78585,21.46815 7.60066,3.70231 21.74865,8.89823 27.65242,10.15548 2.89674,0.61688 3.96169,1.33023 3.86111,2.5863 -0.12537,1.56562 1.15003,1.73447 13.101067,1.73447 12.09399,0 13.63482,0.20995 17.80208,2.42571 2.50918,1.33414 6.7387,2.71671 9.39894,3.07237 6.9891,0.93441 10.33681,2.43171 10.33681,4.62324 0,1.54024 -0.76564,1.88248 -4.25,1.89977 -2.3375,0.0116 -7.4,1.13464 -11.25,2.49564 -7.69379,2.71981 -7.99833,2.75912 -11.25,1.45211 z m 99.31477,-3.27703 c 0.45291,-1.18028 -0.25436,-1.73055 -2.85019,-2.21753 -4.52668,-0.84921 -8.27786,-0.23719 -7.96458,1.29946 0.29455,1.4448 -1.93422,1.63785 -3.3,0.28583 -0.5225,-0.51723 -6.8,-1.9056 -13.95,-3.08526 -7.15,-1.17966 -13.45,-2.61597 -14,-3.19181 -0.69232,-0.72484 0.04,-0.85213 2.38021,-0.41369 1.85912,0.3483 13.32596,-0.0641 25.48186,-0.91649 12.15591,-0.85238 23.90981,-1.25059 26.11979,-0.88492 5.01509,0.82982 7.76316,2.22714 6.95421,3.53604 -0.9432,1.52613 -11.24339,5.84211 -15.60793,6.54003 -3.24731,0.51927 -3.7694,0.36702 -3.26337,-0.95166 z m -68.56477,-5.70616 c 0,-1.175 5.64408,-1.98565 13.825,-1.98565 4.43619,0 7.18135,0.36623 6.625,0.88384 -1.16815,1.08679 -20.45,2.12567 -20.45,1.10181 z m 72.5,-7.89275 c -2.75,-0.3261 -4.55,-0.87748 -4,-1.2253 1.15817,-0.73243 7.29985,-2.26804 9.5,-2.37529 1.54668,-0.0754 5.41395,-1.10934 17.5,-4.67873 41.53688,-12.26717 70.93422,-43.19645 74.66359,-78.55442 2.90532,-27.54526 -4.18213,-58.13284 -24.38963,-105.259163 -2.71212,-6.325 -7.85809,-18.7 -11.43548,-27.5 -3.5774,-8.8 -8.71703,-20.98943 -11.42142,-27.08763 -4.79496,-10.8123 -5.8082,-14.4123702 -4.05639,-14.4123702 2.06182,0 9.28708,16.0099102 26.85229,59.5000002 13.25821,32.826293 15.67379,39.315593 19.91488,53.500003 11.09664,37.11288 9.72099,76.14271 -3.64797,103.5 -5.01253,10.25731 -21.07769,30.81255 -26.30556,33.65777 -2.95958,1.61072 -0.558,-1.93865 4.75908,-7.0336 7.25314,-6.95014 5.31603,-7.96499 -2.18339,-1.14389 -15.81719,14.38655 -41.83225,21.94877 -65.75,19.11262 z m 14.22917,-0.69707 c -0.3323,-0.33229 -1.19479,-0.36781 -1.91667,-0.0789 -0.79773,0.31922 -0.56078,0.55618 0.60417,0.60416 1.05416,0.0434 1.64479,-0.19293 1.3125,-0.52522 z m -128.22917,-4.92467 c -2.2,-0.79257 -4.139064,-1.44782 -4.309024,-1.4561 -0.16996,-0.008 -0.0309,-0.46506 0.30902,-1.01506 0.33992,-0.55 2.015024,-1 3.722464,-1 3.58863,0 13.75958,3.13911 13.7703,4.25 0.0123,1.27636 -9.2763,0.7402 -13.49276,-0.77884 z m 51.25,-3.17689 c 1.2375,-0.23836 3.2625,-0.23836 4.5,0 1.2375,0.23835 0.225,0.43337 -2.25,0.43337 -2.475,0 -3.4875,-0.19502 -2.25,-0.43337 z m -30.75,-1.18728 c 0,-0.49116 0.5625,-1.09987 1.25,-1.35269 1.75753,-0.64633 3.87459,0.23509 3.19721,1.33111 -0.72795,1.17786 -4.44721,1.19591 -4.44721,0.0216 z m 81.18045,-2.34677 c 0.35773,-2.50738 3.42335,-3.56564 5.17577,-1.78668 0.86074,0.87377 0.66343,1.51563 -0.79735,2.59378 -2.89831,2.13914 -4.75006,1.79779 -4.37842,-0.8071 z M 64.783703,8.7132068 c -4.1609,-0.30787 -5.75,-0.8262 -5.75,-1.87554 0,-1.1852398 2.165,-1.4500998 11.85331,-1.4500998 15.51653,0 24.97991,0.9542 22.61104,2.2798898 -1.91381,1.07102 -19.64518,1.71678 -28.71435,1.04575 z m 79.493727,-0.41525 c -10.59096,-0.32429 -19.55346,-0.88679 -19.91667,-1.25 -0.84509,-0.8450898 14.65766,-1.0111298 80.54862,-0.8626598 29.35661,0.0661 53.61911,0.3637198 53.91666,0.6612698 0.29755,0.29755 0.24604,0.83596 -0.11446,1.19647 -0.83706,0.83706 -89.00741,1.03347 -114.43415,0.25492 z M 55.727553,3.748087 c -1.06635,-1.06635 0.2975,-2.36052 2.48761,-2.36052 1.72078,0 1.8567,0.24909 0.81854,1.5 -1.34426,1.61974 -2.29855,1.86812 -3.30615,0.86052 z M 122.18339,451.93372 c 0.35733,-0.37337 17.23233,-0.77069 37.5,-0.88294 23.73341,-0.13144 40.23185,-0.66997 46.35032,-1.51294 5.225,-0.71986 11.4125,-1.52574 13.75,-1.79083 4.49895,-0.51022 5.93462,-2.35944 1.83179,-2.35944 -6.71065,0 -7.33417,-2.63982 -0.83179,-3.52158 11.05135,-1.49863 33.88416,-5.3533 35.4861,-5.99082 2.23902,-0.89105 4.25352,3.72902 2.80563,6.43443 -1.43998,2.69063 -11.04981,4.95193 -26.11354,6.14483 -7.3855,0.58485 -15.22819,1.52073 -17.42819,2.07971 -4.45743,1.13257 -94.38512,2.48083 -93.35032,1.39958 z m -23.650374,-1.57295 c -18.453863,-1.52089 -28.835353,-3.77433 -32.312593,-7.01388 -1.76336,-1.64281 -1.99628,-2.44665 -1.1611,-4.00719 1.24384,-2.32413 2.01097,-2.34228 17.47438,-0.41347 6.6,0.82325 14.37569,1.77815 17.279323,2.12201 5.461014,0.6467 7.505724,1.90898 4.784064,2.95338 -0.85986,0.32996 -1.56338,0.99023 -1.56338,1.46726 0,1.22986 5.49566,3.91869 8.00936,3.91869 1.15977,0 1.83056,0.45 1.49064,1 -0.66603,1.07766 -0.59795,1.07779 -14.000694,-0.0268 z m 28.750694,-6.66253 c 0.9625,-0.25152 2.5375,-0.25152 3.5,0 0.9625,0.25153 0.175,0.45733 -1.75,0.45733 -1.925,0 -2.7125,-0.2058 -1.75,-0.45733 z m 12.75,-4.31067 c 0,-0.55 0.70156,-1 1.55902,-1 0.85746,0 1.2809,0.45 0.94098,1 -0.33992,0.55 -1.04148,1 -1.55902,1 -0.51754,0 -0.94098,-0.45 -0.94098,-1 z m -45.500007,-1.31364 c -11.38433,-1.32325 -13.5,-1.73233 -13.5,-2.61035 0,-1.06768 4.04285,-2.59782 10.97788,-4.1549 3.01283,-0.67646 9.212827,-2.45376 13.777757,-3.94955 8.82708,-2.89238 16.122,-3.02885 18.35081,-0.34331 0.62615,0.75446 2.25048,1.37175 3.60962,1.37175 1.61631,0 2.64911,0.68042 2.98553,1.96688 0.28289,1.08179 1.3723,2.23918 2.4209,2.572 5.64251,1.79086 -4.27262,2.56584 -12.78565,0.99935 -2.98376,-0.54905 -4.31507,-1.34698 -4.69939,-2.8166 -0.45258,-1.73068 -0.77905,-1.849 -2.093,-0.75852 -0.85623,0.7106 -2.9263,1.57211 -4.60017,1.91445 -4.34935,0.88954 -3.96235,2.36473 1.1328,4.31806 2.43261,0.93259 3.74792,1.77372 2.92292,1.86918 -4.36507,0.50509 -12.29415,0.34289 -18.500007,-0.37844 z m 112.500007,0.37266 c 0,-1.60416 1.66316,-2.07639 4.97795,-1.41343 2.24217,0.44843 2.78994,0.88608 1.85271,1.48023 -1.81078,1.14792 -6.83066,1.09883 -6.83066,-0.0668 z m 10,-1.00921 c 0,-0.35739 0.55874,-1.20855 1.24164,-1.89145 0.98886,-0.98886 0.93796,-1.43364 -0.25,-2.18469 -2.19301,-1.38646 -4.57804,-1.17695 -5.99164,0.52633 -1.6584,1.99825 -3.63292,1.89897 -4.44744,-0.22362 -0.39953,-1.04116 -0.0459,-2.17366 0.89301,-2.86024 2.6236,-1.91842 1.75573,-3.24233 -3.02068,-4.60802 -5.90523,-1.68843 -5.32743,-3.33667 1.12365,-3.20534 5.13789,0.10459 14.41128,3.04274 20.09772,6.36769 1.73045,1.01182 5.68063,2.40683 8.77819,3.10004 9.80383,2.194 5.73544,4.1598 -10.67445,5.15779 -4.2625,0.25923 -7.75,0.17891 -7.75,-0.17849 z m -61,-0.96728 -2.5,-0.7181 3.38036,-1.77531 c 3.24754,-1.70555 3.54068,-1.70301 7.46086,0.0648 l 4.0805,1.84005 -2.96086,0.63472 c -3.90957,0.83811 -6.42526,0.82585 -9.46086,-0.0461 z m -23.80075,-14.06897 c -4.83432,-1.14492 -4.78561,-1.66134 0.22144,-2.34764 4.96453,-0.68046 12.26216,1.47433 9.10114,2.68733 -2.06859,0.79379 -4.98527,0.68752 -9.32258,-0.33969 z m 23.56812,-0.18093 c 0.86315,-0.86315 1.76224,-0.88079 3.45,-0.0677 2.14368,1.03275 2.07262,1.10381 -1.16737,1.16737 -2.62976,0.0516 -3.17246,-0.20986 -2.28263,-1.09969 z m 40.73263,0.16737 c -0.33992,-0.55 -0.14148,-1 0.44098,-1 0.58246,0 1.05902,0.45 1.05902,1 0,0.55 -0.19844,1 -0.44098,1 -0.24254,0 -0.7191,-0.45 -1.05902,-1 z m -71.8511,-8.46597 c -1.77652,-1.34587 -1.74152,-1.54605 0.86869,-4.9682 2.98452,-3.91291 4.46528,-4.50854 4.51421,-1.81583 0.0175,0.9625 0.6925,2.62351 1.5,3.69113 0.80751,1.06762 1.4682,2.53012 1.4682,3.25 0,1.76519 -5.96174,1.65304 -8.3511,-0.1571 z m 66.3511,0.64028 c 0,-0.45412 1.12918,-1.88649 2.50929,-3.18304 2.64112,-2.4812 2.57914,-5.70244 -0.14028,-7.29096 -0.75296,-0.43983 -1.36901,-1.5102 -1.36901,-2.37861 0,-0.95941 1.5284,0.13909 3.89535,2.79969 3.398,3.81955 3.66916,4.46441 2.12376,5.0506 -1.27017,0.4818 -1.63211,1.40166 -1.27877,3.25 0.44438,2.32464 0.18651,2.57801 -2.62376,2.57801 -1.71412,0 -3.11658,-0.37156 -3.11658,-0.82569 z m -39,-11.13873 -2.5,-0.76506 2.43514,-0.97582 c 2.1407,-0.85783 1.75024,-1.05631 -3.22929,-1.64156 -5.73776,-0.67436 -12.70585,-3.33523 -12.70585,-4.85192 0,-0.4556 0.43493,-1.60975 0.9665,-2.56479 0.53158,-0.95504 2.35492,-6.20217 4.05187,-11.6603 5.72521,-18.41477 5.09437,-44.60393 -1.49618,-62.1134 -1.55603,-4.13399 -2.04653,-6.63867 -1.38068,-7.05019 1.52136,-0.94025 2.35525,0.37718 4.80265,7.58746 3.33475,9.82452 4.79062,32.33677 3.12078,48.25704 -1.29461,12.3429 -1.29322,12.36355 1.19699,17.8001 l 2.4931,5.44286 -4.12752,0.55672 c -4.03772,0.54462 -4.07118,0.58082 -1.53824,1.66414 4.34178,1.85696 26.84435,2.70681 34.32038,1.29619 4.14423,-0.78196 6.59035,-1.73102 6.59035,-2.55696 0,-0.72239 -0.69755,-1.45894 -1.55011,-1.63677 -1.34237,-0.27999 -1.36339,-0.5774 -0.15681,-2.21912 1.30256,-1.77232 1.59891,-1.53644 4.55011,3.62173 1.73625,3.03464 3.14267,5.91275 3.12539,6.3958 -0.0173,0.48305 -1.17113,1.70853 -2.5641,2.7233 -3.52651,2.56904 -30.32862,4.54991 -36.40448,2.69055 z m 24.40578,-2.88313 c 0.2881,-0.46616 -2.94784,-0.65628 -7.19098,-0.4225 -10.64556,0.58654 -11.29847,1.09689 -1.52382,1.1911 4.50504,0.0434 8.4267,-0.30245 8.7148,-0.7686 z m -45.40578,1.84755 c 0,-0.55 0.675,-1 1.5,-1 0.825,0 1.5,0.45 1.5,1 0,0.55 -0.675,1 -1.5,1 -0.825,0 -1.5,-0.45 -1.5,-1 z m 49.75,-36.57696 c -0.4125,-0.416 -0.75,-1.67137 -0.75,-2.78971 0,-1.47178 0.30207,-1.73126 1.09378,-0.93955 0.60158,0.60158 0.93908,1.85695 0.75,2.78971 -0.18908,0.93276 -0.68128,1.35556 -1.09378,0.93955 z m -1.16594,-8.17304 c -0.67253,-3.21734 -0.0497,-16.11773 0.82022,-16.98761 0.32764,-0.32765 0.59572,3.97928 0.59572,9.57094 0,10.34003 -0.38419,12.35242 -1.41594,7.41667 z m 1.11545,-20.59068 c -0.28296,-0.73738 -0.11299,-1.97488 0.3777,-2.75 0.6493,-1.02567 0.89633,-0.66071 0.90748,1.34068 0.0166,2.98623 -0.47372,3.52394 -1.28518,1.40932 z M 135.70038,308.7209 c -1.81076,-1.81076 -0.2183,-2.84577 4.58761,-2.98168 l 5.24572,-0.14834 -3.75,1.07471 c -2.0625,0.59109 -3.75,1.44535 -3.75,1.89835 0,0.99065 -1.40512,1.08517 -2.33333,0.15696 z m 43.08333,-2.0618 c -5.1337,-0.537 -4.74888,-2.27474 0.5,-2.25788 5.09926,0.0164 8.75,0.89381 8.75,2.10298 0,0.87627 -2.02896,0.91025 -9.25,0.1549 z m -64.5406,-20.39974 c 0.24727,-0.74179 2.8888,-2.13425 5.87008,-3.09437 l 5.42052,-1.74566 -13.5,0.23412 c -8.27451,0.1435 -13.667034,-0.15295 -13.931524,-0.76588 -0.56427,-1.30761 2.732514,-2.2223 11.931524,-3.3104 7.24998,-0.85755 7.0833,-0.88486 -5,-0.81931 -11.984867,0.065 -17.000007,-0.91445 -17.000007,-3.32015 0,-1.26078 13.791977,-2.37704 22.873807,-1.8513 6.01861,0.34841 8.41345,0.95366 10.82337,2.73539 1.84179,1.36169 5.05983,2.47645 7.94875,2.75351 5.91284,0.56706 10.35408,2.15641 10.35408,3.70532 0,1.20342 -14.34054,5.31641 -21.87008,6.27251 -3.39349,0.43091 -4.26962,0.25352 -3.92052,-0.79378 z m 100.42897,-3.37179 c -0.43035,-1.12147 -2.2238,-1.5 -7.10699,-1.5 -3.83558,0 -6.53138,0.42727 -6.53138,1.03518 0,0.67004 -0.61728,0.71036 -1.75,0.11429 -0.9625,-0.50649 -4.9347,-1.23518 -8.82711,-1.61931 -6.80113,-0.67118 -10.4574,-1.82899 -9.33145,-2.95493 0.97375,-0.97375 23.21647,-2.55799 36.03612,-2.56668 10.10105,-0.007 12.88064,0.2964 13.8925,1.51562 1.60905,1.93878 1.23723,2.26969 -5.74703,5.11484 -6.68137,2.72175 -9.82301,2.9761 -10.63466,0.86099 z m -64.88837,-5.20573 c 1.2375,-0.23836 3.2625,-0.23836 4.5,0 1.2375,0.23835 0.225,0.43337 -2.25,0.43337 -2.475,0 -3.4875,-0.19502 -2.25,-0.43337 z m 22.75,-0.29427 c -0.33992,-0.55 -0.14148,-1 0.44098,-1 0.58246,0 1.05902,0.45 1.05902,1 0,0.55 -0.19844,1 -0.44098,1 -0.24254,0 -0.7191,-0.45 -1.05902,-1 z M 70.033703,270.85396 c -2.475,-0.7699 -5.4,-1.84381 -6.5,-2.38647 -1.1,-0.54266 -5.03021,-2.32611 -8.73381,-3.96323 -6.59452,-2.91501 -9.7099,-5.09182 -20.11442,-14.05457 -10.12649,-8.72325 -20.52373,-24.57365 -24.639289,-37.56212 -0.6970905,-2.2 -1.8711505,-5.17086 -2.6090205,-6.60191 -4.18575,-8.11805 -5.6627,-36.49708 -2.87045,-55.15467 1.62439,-10.85403 6.7754805,-29.74492 13.2911795,-48.74342 5.34871,-15.595793 31.58531,-84.957423 33.63548,-88.922013 1.48671,-2.87498 4.05798,-4.9116902 4.98866,-3.9515302 0.19914,0.205451 -1.43648,4.6485402 -3.63471,9.8735402 -2.19823,5.225 -6.16658,15.35 -8.81855,22.5 -2.65198,7.15 -6.95567,18.175 -9.56378,24.5 -2.6081,6.325 -6.42354,16.225 -8.47876,22 -2.05522,5.775 -6.07511,17.025003 -8.93309,25.000003 -11.5858295,32.32949 -13.9981995,54.90853 -9.0814695,85 1.08973,6.6694 8.5079495,22.66246 14.0182495,30.22218 4.04573,5.55043 17.54789,17.2853 25.91214,22.5205 9.58661,6.00028 27.57079,13.73 35.70747,15.34732 6.60857,1.31357 8.10611,2.93949 4.48991,4.87482 -2.70555,1.44796 -12.69461,1.17237 -18.06574,-0.49843 z m 160.083667,-2.36658 c -3.71019,-0.5039 -4.17402,-0.79924 -2.90081,-1.84709 0.83354,-0.68601 3.7209,-1.66652 6.41634,-2.17891 11.08689,-2.10758 30.25895,-10.51447 41.7249,-18.29623 7.44189,-5.05071 18.71067,-15.67509 24.22036,-22.83534 5.33644,-6.93511 13.00885,-22.66485 15.33641,-31.44224 3.3993,-12.81899 -0.30774,-49.93873 -7.04063,-70.5 -3.98377,-12.16585 -28.78271,-73.149023 -40.36668,-99.265873 -4.54942,-10.25696 -5.20911,-13.8982602 -1.92252,-10.61166 1.96576,1.96575 12.32928,26.07147 27.24723,63.37753 13.20368,33.019093 13.64421,34.233543 18.57602,51.210383 11.2751,38.81242 7.64693,82.21421 -8.96886,107.28962 -5.45127,8.22667 -11.48851,15.03375 -10.71703,12.0836 0.29968,-1.14598 0.22662,-2.0836 -0.16237,-2.0836 -0.38898,0 -4.15396,3.20397 -8.36663,7.11993 -14.81865,13.77496 -34.62759,20.48542 -53.07573,17.97988 z m -123.38451,-3.06566 c -2.09046,-0.40471 -4.31796,-1.25296 -4.95,-1.885 -2.562714,-2.56271 10.83275,-0.61968 13.70085,1.98733 1.11593,1.01434 -3.24645,0.96333 -8.75085,-0.10233 z m 100.4782,-7.59048 c 0.35621,-1.71048 2.09044,-2.14029 2.58991,-0.64188 0.1745,0.52349 -0.40944,1.23066 -1.29764,1.5715 -1.11411,0.42752 -1.51486,0.13923 -1.29227,-0.92962 z m 75.81895,-1.93973 c 1.2897,-1.37283 2.56539,-2.27559 2.83485,-2.00613 0.66385,0.66386 -2.88313,4.50219 -4.16045,4.50219 -0.56063,0 0.0359,-1.12323 1.3256,-2.49606 z M 60.176943,7.4972568 c -0.75839,-0.48054 -0.9416,-1.1162798 -0.4154,-1.4414798 1.47111,-0.9092 32.26476,0.5347498 31.67724,1.4853898 -0.68683,1.11131 -29.50254,1.07084 -31.26184,-0.0439 z m 77.856767,-0.1122 c -1.925,-0.40381 24.2875,-0.79344 58.25,-0.86585 39.38913,-0.084 61.75,0.22022 61.75,0.84001 0,1.14428 -114.55072,1.16894 -120,0.0258 z M 56.033703,2.387567 c 0,-0.55 0.675,-1 1.5,-1 0.825,0 1.5,0.45 1.5,1 0,0.55 -0.675,1 -1.5,1 -0.825,0 -1.5,-0.45 -1.5,-1 z"
       style="display:inline;fill:#777777"
       id="path1" />
  </g>
</svg>
