<?xml version="1.0" encoding="UTF-8" standalone="no"?>
<!-- Created with Inkscape (http://www.inkscape.org/) -->

<svg
   id="svg10"
   version="1.1"
   inkscape:version="1.3.2 (091e20e, 2023-11-25, custom)"
   width="100"
   height="406.01904"
   sodipodi:docname="Wine_bottle.svg"
   xmlns:inkscape="http://www.inkscape.org/namespaces/inkscape"
   xmlns:sodipodi="http://sodipodi.sourceforge.net/DTD/sodipodi-0.dtd"
   xmlns="http://www.w3.org/2000/svg"
   xmlns:svg="http://www.w3.org/2000/svg"
   xmlns:rdf="http://www.w3.org/1999/02/22-rdf-syntax-ns#"
   xmlns:cc="http://creativecommons.org/ns#"
   xmlns:dc="http://purl.org/dc/elements/1.1/">
  <metadata
     id="metadata16">
    <rdf:RDF>
      <cc:Work
         rdf:about="">
        <dc:format>image/svg+xml</dc:format>
        <dc:type
           rdf:resource="http://purl.org/dc/dcmitype/StillImage" />
      </cc:Work>
    </rdf:RDF>
  </metadata>
  <defs
     id="defs14" />
  <sodipodi:namedview
     pagecolor="#ffffff"
     bordercolor="#666666"
     borderopacity="1"
     objecttolerance="10"
     gridtolerance="10"
     guidetolerance="10"
     inkscape:pageopacity="0"
     inkscape:pageshadow="2"
     inkscape:window-width="3440"
     inkscape:window-height="1377"
     id="namedview12"
     showgrid="false"
     inkscape:zoom="3.7288888"
     inkscape:cx="-43.31049"
     inkscape:cy="189.19846"
     inkscape:window-x="-8"
     inkscape:window-y="-8"
     inkscape:window-maximized="1"
     inkscape:current-layer="svg10"
     inkscape:showpageshadow="2"
     inkscape:pagecheckerboard="0"
     inkscape:deskcolor="#d1d1d1">
    <sodipodi:guide
       position="-98.499999,424.25504"
       orientation="0,297"
       id="guide2837"
       inkscape:locked="false" />
    <sodipodi:guide
       position="198.5,424.25504"
       orientation="450,0"
       id="guide2839"
       inkscape:locked="false" />
    <sodipodi:guide
       position="198.5,-25.744963"
       orientation="0,-297"
       id="guide2841"
       inkscape:locked="false" />
    <sodipodi:guide
       position="-98.499999,-25.744963"
       orientation="-450,0"
       id="guide2843"
       inkscape:locked="false" />
  </sodipodi:namedview>
  <path
     id="rect20"
     style="fill:none;stroke:#000000;stroke-opacity:1"
     d="M 40.958984 0 C 35.419008 0 30.958984 2.2300112 30.958984 5 L 30.958984 9.5703125 C 29.883478 10.486023 29.201172 11.847279 29.201172 13.376953 L 29.201172 26.660156 C 29.201172 28.189833 29.883478 29.553039 30.958984 30.46875 L 30.958984 114.54688 A 50 32.449345 0 0 0 0 144.54688 A 50 32.449345 0 0 0 0.109375 145.35156 L 0 145.35156 L 0 374.7207 L 0 380.27344 L 0 396.01953 C -2.3684734e-15 401.55953 8.9200114 406.01953 20 406.01953 L 80 406.01953 C 91.079989 406.01953 100 401.55953 100 396.01953 L 100 380.27344 L 100 374.7207 L 100 145.35156 L 99.890625 145.35156 A 50 32.449345 0 0 0 100 144.54688 A 50 32.449345 0 0 0 69.041016 114.54688 L 69.041016 30.46875 C 70.116522 29.553039 70.798828 28.189833 70.798828 26.660156 L 70.798828 13.376953 C 70.798828 11.847279 70.116522 10.486023 69.041016 9.5703125 L 69.041016 5 C 69.041016 2.2300112 64.580992 0 59.041016 0 L 40.958984 0 z " />
</svg>
